<svg xmlns="http://www.w3.org/2000/svg" viewBox="0 0 265 265" width="265" height="265">
  <!-- Fondo opcional -->
  <rect width="265" height="265" rx="48" fill="white"></rect>

  <!-- Cuerpo del impostor -->
  <path d="M85 80
       c0-30 25-50 47-50
       h10
       c35 0 60 25 60 60
       v55
       c0 35-25 60-60 60
       h-20
       c-35 0-60-25-60-60
       z" fill="black"></path>

  <!-- Visor -->
  <ellipse cx="145" cy="95" rx="45" ry="28" fill="white"></ellipse>

  <!-- Techo tipo casa -->
  <polygon points="70,90 132,40 210,90" fill="black"></polygon>

  <!-- Chimenea -->
  <rect x="185" y="48" width="18" height="32" fill="black"></rect>

  <!-- Piernas -->
  <rect x="95" y="195" width="32" height="40" rx="12" fill="black"></rect>
  <rect x="150" y="195" width="32" height="40" rx="12" fill="black"></rect>

  <!-- Llave inglesa (impostor técnico 😈) -->
  <path d="M40 135
       c10-10 30-5 32 8
       l12 60
       c2 10-8 20-18 18
       l-15-4
       c-8-2-10-10-6-16
       l10-18
       -10-30
       c-2-6-1-12 5-18
       z" fill="black"></path>

</svg>
